<svg xmlns="http://www.w3.org/2000/svg" fill="#33cc99" viewBox="0 0 24 24" width="36" height="36">
  <path d="M20.52 3.48a11.73 11.73 0 00-16.59 0 11.72 11.72 0 00-3.5 8.32 11.9 11.9 0 001.77 6.03L2 22l4.29-1.42a11.8 11.8 0 006 1.54h.05a11.72 11.72 0 008.18-20.64zM12.02 19.5h-.05a8.13 8.13 0 01-4.14-1.15l-.3-.18-2.55.85.86-2.49-.19-.27a8.1 8.1 0 01-1.28-4.54 8.18 8.18 0 1113.28 6.12 8.12 8.12 0 01-6.88 2.16z"></path>
  <path d="M16.5 13.6l-1.24-.58a.9.9 0 00-1.06.22l-.54.66a6.54 6.54 0 01-3.17-3.18l.66-.55a.91.91 0 00.23-1.06l-.59-1.23a.9.9 0 00-1.06-.5l-1.53.61a.89.89 0 00-.6 1.03 7.44 7.44 0 006.5 6.51.9.9 0 001.03-.6l.62-1.56a.89.89 0 00-.49-1.06z"></path>
</svg>
